<svg width="97" height="24" viewBox="0 0 97 24" fill="none" xmlns="http://www.w3.org/2000/svg">
<g clip-path="url(#clip0_291_2109)">
<rect width="97" height="24" fill="#696969"/>
<mask id="mask0_291_2109" style="mask-type:luminance" maskUnits="userSpaceOnUse" x="0" y="0" width="97" height="24">
<path d="M0 0H97V24H0V0Z" fill="white"/>
</mask>
<g mask="url(#mask0_291_2109)">
<path fill-rule="evenodd" clip-rule="evenodd" d="M2.692 13.903L8.198 4.393C7.73421 3.91107 7.47571 3.26785 7.477 2.599C7.47833 1.9089 7.75353 1.24754 8.24217 0.760219C8.7308 0.272898 9.3929 -0.000530533 10.083 7.72849e-07C10.7731 -0.000530533 11.4352 0.272898 11.9238 0.760219C12.4125 1.24754 12.6877 1.9089 12.689 2.599C12.689 3.294 12.415 3.927 11.968 4.392L17.478 13.903H17.564C18.254 13.9022 18.9161 14.1754 19.4048 14.6626C19.8934 15.1497 20.1687 15.811 20.17 16.501C20.1687 17.1911 19.8935 17.8525 19.4048 18.3398C18.9162 18.8271 18.2541 19.1005 17.564 19.1C16.8739 19.1005 16.2118 18.8271 15.7232 18.3398C15.2345 17.8525 14.9593 17.1911 14.958 16.501C14.958 15.997 15.103 15.525 15.354 15.126L10.083 6.021L4.816 15.122C5.066 15.521 5.212 15.99 5.212 16.498C5.21041 17.1879 4.93509 17.849 4.44648 18.3361C3.95788 18.8232 3.29593 19.0965 2.606 19.096C1.91607 19.0965 1.25412 18.8232 0.76552 18.3361C0.276915 17.849 0.0015895 17.1879 0 16.498C0.00100607 16.1493 0.0720512 15.8043 0.20892 15.4835C0.345789 15.1628 0.545692 14.8728 0.796769 14.6307C1.04785 14.3887 1.34498 14.1996 1.67054 14.0746C1.99611 13.9496 2.34346 13.8912 2.692 13.903ZM17.477 10.101H17.564C18.2542 10.1018 18.9164 9.82845 19.4051 9.34107C19.8938 8.8537 20.1689 8.19219 20.17 7.502C20.1684 6.81207 19.8931 6.15097 19.4045 5.66387C18.9159 5.17676 18.2539 4.90347 17.564 4.904C16.8741 4.90347 16.2121 5.17676 15.7235 5.66387C15.2349 6.15097 14.9596 6.81207 14.958 7.502C14.958 8.007 15.103 8.479 15.354 8.878L15.314 8.948L16.729 11.39L17.477 10.101ZM14.609 15.051L13.194 12.61L10.087 17.979L6.975 12.609L5.561 15.052L8.201 19.612C7.73782 20.0938 7.4797 20.7366 7.481 21.405C7.48232 22.0951 7.75753 22.7565 8.24617 23.2438C8.7348 23.7311 9.3969 24.0045 10.087 24.004C10.7771 24.0045 11.4392 23.7311 11.9278 23.2438C12.4165 22.7565 12.6917 22.0951 12.693 21.405C12.693 20.71 12.418 20.077 11.972 19.612L14.609 15.051ZM3.441 11.395L4.855 8.953L4.816 8.883C5.066 8.484 5.212 8.015 5.212 7.507C5.21041 6.81707 4.93509 6.15597 4.44648 5.66887C3.95788 5.18176 3.29593 4.90847 2.606 4.909C2.26431 4.90821 1.92582 4.97478 1.60987 5.1049C1.29393 5.23502 1.00673 5.42615 0.764704 5.66734C0.522675 5.90853 0.330561 6.19507 0.199347 6.51056C0.0681335 6.82605 0.000393347 7.16431 0 7.506C0.00132488 8.1961 0.276533 8.85746 0.765167 9.34478C1.2538 9.8321 1.9159 10.1055 2.606 10.105H2.692L3.441 11.395ZM34.175 17.103L33.415 15.266H28.375L27.615 17.103H25.056L29.646 6.9H32.204L36.765 17.103H34.175ZM30.92 9.186L29.239 13.207H32.569L30.92 9.186ZM43.557 6.9H46.206L41.993 17.103H39.466L35.257 6.9H37.902L39.278 10.37L40.724 14.333L42.2 10.37L43.557 6.9ZM49.313 15.09H54.956V17.103H46.989V6.9H54.795V8.897H49.313V10.964H54.5V12.891H49.312L49.313 15.09ZM60.258 13.735H58.871V17.103H56.473V6.9H61.457C62.197 6.90067 62.845 7.044 63.401 7.33C63.9396 7.5997 64.3866 8.02236 64.686 8.545C64.9887 9.069 65.1403 9.671 65.141 10.351C65.1403 11.1277 64.9377 11.793 64.533 12.347C64.1297 12.9003 63.5577 13.2937 62.817 13.527L65.713 17.099H62.864L60.258 13.735ZM62.774 10.382C62.7747 9.924 62.6363 9.56967 62.359 9.319C62.0803 9.06567 61.6883 8.93933 61.183 8.94H58.859V11.812H61.183C61.6997 11.8113 62.094 11.6877 62.366 11.441C62.6367 11.1917 62.7727 10.8387 62.774 10.382ZM70.592 13.735H69.205V17.103H66.807V6.9H71.791C72.531 6.90067 73.179 7.044 73.735 7.33C74.2736 7.5997 74.7206 8.02236 75.02 8.545C75.3227 9.069 75.4743 9.671 75.475 10.351C75.4743 11.1277 75.2717 11.793 74.867 12.347C74.4637 12.9003 73.8917 13.2937 73.151 13.527L76.047 17.099H73.197L70.592 13.735ZM73.104 10.382C73.1047 9.924 72.9663 9.56967 72.689 9.319C72.4103 9.06567 72.0183 8.93933 71.513 8.94H69.189V11.812H71.513C72.029 11.8113 72.4233 11.6877 72.696 11.441C72.971 11.191 73.104 10.839 73.104 10.382ZM82.003 17.35C80.9017 17.3493 79.935 17.1277 79.103 16.685C78.2908 16.2637 77.6206 15.6126 77.176 14.813C76.721 14.008 76.498 13.071 76.498 12C76.498 10.93 76.725 9.995 77.175 9.187C77.6218 8.38866 78.2918 7.73806 79.103 7.315C79.937 6.873 80.9037 6.65167 82.003 6.651C83.1057 6.651 84.0723 6.87233 84.903 7.315C85.7155 7.73614 86.3861 8.38721 86.831 9.187C87.286 9.992 87.509 10.929 87.509 12C87.509 13.07 87.282 14.005 86.831 14.813C86.3842 15.6113 85.7142 16.2619 84.903 16.685C84.073 17.131 83.104 17.35 82.003 17.35ZM82.003 15.223C82.619 15.223 83.159 15.09 83.633 14.82C84.1014 14.5585 84.4831 14.1657 84.731 13.69C84.989 13.2047 85.1183 12.641 85.119 11.999C85.119 11.359 84.9897 10.795 84.731 10.307C84.4833 9.83144 84.102 9.43867 83.634 9.177C83.159 8.912 82.619 8.775 82.004 8.775C81.388 8.77433 80.847 8.90867 80.381 9.178C79.9175 9.44274 79.5393 9.83446 79.291 10.307C79.033 10.793 78.904 11.357 78.904 11.999C78.904 12.639 79.0333 13.203 79.292 13.691C79.5507 14.1777 79.9137 14.5543 80.381 14.821C80.851 15.086 81.392 15.223 82.003 15.223ZM92.685 17.334C91.8639 17.3371 91.0476 17.2088 90.267 16.954C89.491 16.702 88.821 16.348 88.257 15.892L89.499 14.157C90.4057 14.865 91.4623 15.2193 92.669 15.22C93.2743 15.22 93.754 15.1183 94.108 14.915C94.4633 14.7123 94.6407 14.435 94.64 14.083C94.64 13.751 94.476 13.496 94.143 13.309C93.811 13.125 93.2843 12.9933 92.563 12.914C91.1697 12.7587 90.1497 12.433 89.503 11.937C88.856 11.441 88.531 10.734 88.531 9.807C88.531 9.187 88.708 8.636 89.056 8.163C89.4073 7.687 89.9 7.31833 90.534 7.057C91.168 6.79433 91.898 6.66267 92.724 6.662C93.4289 6.66126 94.13 6.76402 94.805 6.967C95.445 7.15387 96.05 7.44439 96.596 7.827L95.471 9.503C94.6977 8.95663 93.7729 8.66573 92.826 8.671C92.2313 8.671 91.756 8.76867 91.4 8.964C91.044 9.15933 90.8663 9.421 90.867 9.749C90.867 10.069 91.021 10.3167 91.329 10.492C91.635 10.667 92.152 10.796 92.869 10.886C94.2537 11.042 95.287 11.3847 95.969 11.914C96.651 12.445 96.992 13.168 96.992 14.094C96.992 14.7353 96.8117 15.302 96.451 15.794C96.091 16.2867 95.5843 16.6657 94.931 16.931C94.2843 17.2003 93.5357 17.3347 92.685 17.334Z" fill="#696969"/>
</g>
</g>
<defs>
<clipPath id="clip0_291_2109">
<rect width="97" height="24" fill="white"/>
</clipPath>
</defs>
</svg>
