<svg width="108" height="24" viewBox="0 0 108 24" fill="none" xmlns="http://www.w3.org/2000/svg">
<g clip-path="url(#clip0_291_2170)">
<rect width="108" height="24" fill="#696969"/>
<mask id="mask0_291_2170" style="mask-type:luminance" maskUnits="userSpaceOnUse" x="0" y="0" width="108" height="24">
<path d="M0 0H108V24H0V0Z" fill="white"/>
</mask>
<g mask="url(#mask0_291_2170)">
<path d="M12.46 5.00586L12.666 5.12986L16.12 7.12786L16.202 7.18986H16.223L16.429 7.31286L12.255 9.72286L8.225 12.0099H8.204L4.214 9.70286L12.46 5.00586ZM0 12.2359L3.886 14.5019L4.154 14.6469L12.254 19.3429V23.9999L8.101 21.5699L4.154 19.2619L0 16.8309V12.2359Z" fill="#696969"/>
<path d="M4.215 9.70266L8.205 12.0097H8.225L12.255 14.3587L16.038 16.5627L16.244 16.6867L16.449 16.8097L16.552 16.8717L20.212 18.9937L20.418 23.5257L16.532 21.5897L16.326 21.7127L12.276 23.9997H12.255V19.3437L4.154 14.6467L3.886 14.5027L0 12.2367V12.1127L4.154 9.74366L4.215 9.70266ZM12.255 0.472656L12.461 5.00566L4.215 9.70266L4.154 5.10866L8.41 2.65666L12.255 0.472656Z" fill="#696969"/>
<path d="M20.3969 0H20.4179V4.656L28.5189 9.353L28.7869 9.497L32.6729 11.763L28.5189 14.256L28.4579 14.297L24.4679 11.99H24.4479L20.4179 9.641L16.6549 7.437L16.4289 7.313L16.2239 7.19H16.2029L16.1209 7.128L12.6659 5.13L12.4599 5.006L12.2549 0.474L16.1399 2.41L16.3459 2.287L20.3969 0Z" fill="#696969"/>
<path d="M24.4481 11.99H24.4681L28.4581 14.297L20.2121 18.994L16.5521 16.872L16.4491 16.81L16.2441 16.687L20.4181 14.276L24.4481 11.99ZM20.4181 0L24.5721 2.43L28.5191 4.738L32.6731 7.169V11.763L28.7871 9.497L28.5191 9.353L20.4181 4.656V0ZM16.1201 7.128L16.2021 7.19L16.1201 7.149V7.128Z" fill="#696969"/>
<path d="M28.4578 14.2974L28.5198 14.3374V18.8904L24.2628 21.3424L20.4178 23.5264L20.2118 18.9934L28.4578 14.2974ZM16.5518 16.8724L20.0268 18.8704L20.2118 18.9944L16.5518 16.8724ZM58.6468 8.04441L54.7948 21.2394H51.2058L48.8058 12.0224L46.4048 21.2394H42.7898L38.9158 8.04441H42.2918L44.6208 18.0954L47.1408 8.04541H50.6588L53.1308 18.0714L55.4608 8.04441H58.6468ZM60.6798 5.91241C60.2911 5.54041 60.0971 5.07607 60.0978 4.51941C60.0978 3.96341 60.2918 3.49907 60.6798 3.12641C61.0664 2.75307 61.5531 2.56641 62.1398 2.56641C62.7264 2.56641 63.2141 2.75307 63.6028 3.12641C63.9921 3.49974 64.1864 3.96407 64.1858 4.51941C64.1858 5.07541 63.9914 5.53974 63.6028 5.91241C63.2148 6.28574 62.7274 6.47241 62.1408 6.47241C61.5541 6.47241 61.0671 6.28574 60.6798 5.91241ZM63.7808 8.04441V21.2394H60.4528V8.04441H63.7808ZM74.3368 21.2394L71.6268 17.1434L69.2258 21.2404H65.6598L69.9628 14.6184L65.6118 8.04441H69.3688L72.0538 12.1174L74.4798 8.04441H78.0458L73.7198 14.6194L78.0938 21.2404L74.3368 21.2394ZM83.2288 3.61441V21.2404H79.8998V3.61441H83.2288ZM98.6578 15.6424H89.0288C89.1088 16.5957 89.4414 17.3421 90.0268 17.8814C90.6134 18.4214 91.3351 18.6914 92.1918 18.6914C93.4278 18.6914 94.3078 18.1594 94.8318 17.0954H98.4198C98.0398 18.3654 97.3111 19.4094 96.2338 20.2274C95.1551 21.0454 93.8318 21.4541 92.2638 21.4534C90.9944 21.4534 89.8568 21.1717 88.8508 20.6084C87.8526 20.0532 87.0356 19.222 86.4978 18.2144C85.9351 17.1824 85.6541 15.9914 85.6548 14.6414C85.6541 13.2767 85.9314 12.0777 86.4868 11.0444C87.0136 10.0401 87.8233 9.2123 88.8158 8.66341C89.8138 8.10807 90.9628 7.83007 92.2628 7.82941C93.5141 7.82941 94.6351 8.09941 95.6258 8.63941C96.6164 9.17941 97.3851 9.94541 97.9318 10.9374C98.4784 11.9287 98.7518 13.0684 98.7518 14.3564C98.7524 14.8317 98.7211 15.2604 98.6578 15.6424ZM95.3048 13.4024C95.2888 12.5464 94.9798 11.8601 94.3778 11.3434C93.7764 10.8274 93.0394 10.5694 92.1668 10.5694C91.3428 10.5694 90.6494 10.8194 90.0868 11.3194C89.5241 11.8194 89.1798 12.5141 89.0538 13.4034L95.3048 13.4024ZM105.051 10.7834V17.1674C105.051 17.6114 105.158 17.9331 105.373 18.1324C105.586 18.3304 105.946 18.4294 106.454 18.4294H108V21.2404H105.907C103.101 21.2404 101.698 19.8751 101.699 17.1444V10.7844H100.13V8.04441H101.699V4.78141H105.051V8.04441H108V10.7844L105.051 10.7834Z" fill="#696969"/>
</g>
</g>
<defs>
<clipPath id="clip0_291_2170">
<rect width="108" height="24" fill="white"/>
</clipPath>
</defs>
</svg>
