<svg width="78" height="24" viewBox="0 0 78 24" fill="none" xmlns="http://www.w3.org/2000/svg">
<g clip-path="url(#clip0_291_2093)">
<rect width="78" height="24" fill="#696969"/>
<mask id="mask0_291_2093" style="mask-type:luminance" maskUnits="userSpaceOnUse" x="0" y="0" width="78" height="24">
<path d="M0 0H78V24H0V0Z" fill="white"/>
</mask>
<g mask="url(#mask0_291_2093)">
<path fill-rule="evenodd" clip-rule="evenodd" d="M12.403 6.43439H13.509C13.678 6.43439 13.816 6.57239 13.816 6.74039V7.84239C13.8152 7.92357 13.7826 8.0012 13.7252 8.05861C13.6678 8.11601 13.5902 8.14861 13.509 8.14939H12.403C12.3218 8.14861 12.2442 8.11601 12.1868 8.05861C12.1294 8.0012 12.0968 7.92357 12.096 7.84239V6.74039C12.096 6.57239 12.234 6.43439 12.403 6.43439ZM15.091 6.67639H15.633C15.6528 6.67626 15.6724 6.68004 15.6907 6.68752C15.709 6.695 15.7257 6.70603 15.7397 6.71997C15.7537 6.73391 15.7649 6.75049 15.7725 6.76876C15.7801 6.78702 15.784 6.80661 15.784 6.82639V7.36739C15.784 7.40717 15.7682 7.44533 15.7401 7.47346C15.7119 7.50159 15.6738 7.51739 15.634 7.51739H15.091C15.0512 7.51739 15.0131 7.50159 14.9849 7.47346C14.9568 7.44533 14.941 7.40717 14.941 7.36739V6.82739C14.941 6.78761 14.9568 6.74946 14.9849 6.72133C15.0131 6.69319 15.0512 6.67639 15.091 6.67639ZM0 11.6194V6.71939C0 6.19339 0.262 5.74039 0.72 5.47739L5.308 2.83739L9.896 0.197391C10.1138 0.0681842 10.3623 0 10.6155 0C10.8687 0 11.1172 0.0681842 11.335 0.197391L15.923 2.83739L20.473 5.45539L13.158 9.66439C13.1019 9.52273 13.0044 9.40121 12.8784 9.31561C12.7523 9.23002 12.6034 9.1843 12.451 9.18439H9.72C9.51913 9.18465 9.32653 9.26443 9.1843 9.40628C9.04208 9.54813 8.96179 9.74052 8.961 9.94139V12.0794L6.259 13.6344C5.819 13.8874 5.349 14.0144 4.88 14.0144C4.411 14.0144 3.941 13.8874 3.502 13.6344L0 11.6194Z" fill="#696969"/>
<path fill-rule="evenodd" clip-rule="evenodd" d="M14.6111 10.638H15.9081C16.0034 10.638 16.0948 10.6758 16.1623 10.7431C16.2298 10.8104 16.2678 10.9017 16.2681 10.997V12.29C16.2678 12.3854 16.2298 12.4767 16.1623 12.544C16.0948 12.6113 16.0034 12.649 15.9081 12.649H14.6111C14.5156 12.649 14.424 12.6111 14.3565 12.5436C14.289 12.4761 14.2511 12.3845 14.2511 12.289V10.997C14.2511 10.9016 14.289 10.81 14.3565 10.7425C14.424 10.675 14.5156 10.638 14.6111 10.638ZM6.70809 14.407L9.06809 13.05C9.13551 13.1628 9.23102 13.2562 9.34529 13.321C9.45957 13.3859 9.5887 13.42 9.72009 13.42H12.4521C12.653 13.42 12.8457 13.3405 12.9881 13.1989C13.1305 13.0572 13.211 12.8649 13.2121 12.664V10.666L18.3621 7.70205L21.1061 6.12305C21.1881 6.30505 21.2294 6.50371 21.2301 6.71905V12.369L19.1781 13.549L7.52409 20.256C6.36209 20.926 5.03009 20.926 3.86809 20.256L0.36809 18.242C0.127637 17.9798 -0.00394326 17.6358 9.00549e-05 17.28V12.653L3.05209 14.409C4.21409 15.079 5.54609 15.079 6.70809 14.409" fill="#696969"/>
<path fill-rule="evenodd" clip-rule="evenodd" d="M7.52416 20.2571L19.1792 13.5511L21.2302 12.3711V17.2801C21.2334 17.5328 21.1682 17.7817 21.0415 18.0004C20.9147 18.2191 20.7311 18.3993 20.5102 18.5221L15.9232 21.1621L11.3352 23.8021C11.1173 23.9315 10.8686 23.9998 10.6152 23.9998C10.3618 23.9998 10.113 23.9315 9.89516 23.8021L5.30816 21.1621L0.720164 18.5221C0.589425 18.447 0.470758 18.3526 0.368164 18.2421L3.86816 20.2571C5.03116 20.9271 6.36216 20.9271 7.52416 20.2571Z" fill="#696969"/>
<path d="M76.245 13.996C76.2481 14.1992 76.2024 14.4001 76.1117 14.5819C76.0211 14.7638 75.8881 14.9212 75.724 15.041C75.5489 15.1709 75.3527 15.2697 75.144 15.333C74.9227 15.403 74.6817 15.4377 74.421 15.437C74.0477 15.437 73.733 15.3503 73.477 15.177C73.221 15.0043 73.093 14.7537 73.093 14.425V14.399C73.093 14.0443 73.2317 13.7717 73.509 13.581C73.787 13.391 74.1737 13.296 74.669 13.296C74.9723 13.296 75.2607 13.322 75.534 13.374C75.8073 13.426 76.044 13.491 76.244 13.569L76.245 13.996ZM77.769 16.476V12.413C77.769 11.495 77.5217 10.7833 77.027 10.278C76.5317 9.77133 75.7717 9.518 74.747 9.518C74.183 9.518 73.7013 9.57 73.302 9.674C72.9027 9.778 72.512 9.91667 72.13 10.09L72.56 11.349C72.872 11.219 73.18 11.115 73.484 11.037C73.8251 10.955 74.1752 10.916 74.526 10.921C75.0727 10.921 75.4917 11.0463 75.783 11.297C76.0737 11.5483 76.219 11.9117 76.219 12.387V12.557C75.944 12.4687 75.6633 12.3989 75.379 12.348C75.0283 12.2906 74.6733 12.2645 74.318 12.27C73.9187 12.27 73.5473 12.3157 73.204 12.407C72.8607 12.497 72.5657 12.6333 72.319 12.816C72.0717 12.9967 71.8783 13.226 71.739 13.504C71.5945 13.8076 71.5233 14.1409 71.531 14.477V14.503C71.531 14.849 71.598 15.154 71.732 15.418C71.8667 15.682 72.045 15.9027 72.267 16.08C72.4883 16.258 72.7467 16.3923 73.042 16.483C73.3373 16.5737 73.6497 16.619 73.979 16.619C74.4997 16.619 74.9427 16.524 75.308 16.334C75.6733 16.144 75.973 15.9103 76.207 15.633V16.477L77.769 16.476ZM68.574 10.959H70.423V9.622H68.573V7.74H66.985V9.622H66.112V10.959H66.985V14.576C66.985 14.9573 67.0333 15.2763 67.13 15.533C67.226 15.7877 67.3637 15.9937 67.543 16.151C67.723 16.307 67.9357 16.4197 68.181 16.489C68.425 16.5577 68.6907 16.592 68.978 16.592C69.2733 16.592 69.5337 16.562 69.759 16.502C69.9857 16.4413 70.1983 16.3547 70.397 16.242V14.957C70.0943 15.1107 69.7595 15.1909 69.42 15.191C69.1513 15.191 68.943 15.1243 68.795 14.991C68.6483 14.855 68.5747 14.6357 68.574 14.333V10.959ZM63.325 13.996C63.3282 14.1991 63.2826 14.3999 63.1922 14.5818C63.1017 14.7636 62.9689 14.9211 62.805 15.041C62.6299 15.1709 62.4337 15.2697 62.225 15.333C62.003 15.403 61.762 15.4377 61.502 15.437C61.1287 15.437 60.8137 15.3503 60.557 15.177C60.301 15.0043 60.173 14.7537 60.173 14.425V14.399C60.173 14.0443 60.312 13.7717 60.59 13.581C60.868 13.3903 61.2543 13.2953 61.749 13.296C62.053 13.296 62.3417 13.322 62.615 13.374C62.8883 13.426 63.125 13.491 63.325 13.569V13.996ZM64.849 16.476V12.413C64.849 11.495 64.6017 10.7833 64.107 10.278C63.6123 9.77133 62.8523 9.518 61.827 9.518C61.2637 9.518 60.782 9.57 60.382 9.674C59.982 9.778 59.5913 9.91667 59.21 10.09L59.64 11.349C59.952 11.219 60.26 11.115 60.564 11.037C60.9051 10.955 61.2552 10.916 61.606 10.921C62.1527 10.921 62.5717 11.0463 62.863 11.297C63.1543 11.5483 63.3 11.9117 63.3 12.387V12.557C63.025 12.4687 62.7443 12.3989 62.46 12.348C62.109 12.2906 61.7536 12.2645 61.398 12.27C60.998 12.27 60.627 12.3157 60.285 12.407C59.9417 12.497 59.6463 12.6333 59.399 12.816C59.1523 12.9967 58.959 13.226 58.819 13.504C58.6745 13.8076 58.6033 14.1409 58.611 14.477V14.503C58.611 14.849 58.6783 15.154 58.813 15.418C58.9483 15.682 59.1263 15.9027 59.347 16.08C59.569 16.258 59.8273 16.3923 60.122 16.483C60.418 16.5737 60.7307 16.619 61.06 16.619C61.58 16.619 62.0227 16.524 62.388 16.334C62.7527 16.144 63.0527 15.9103 63.288 15.633V16.477L64.849 16.476ZM55.55 13.049C55.55 13.3863 55.4957 13.689 55.387 13.957C55.279 14.2257 55.1343 14.457 54.953 14.651C54.7752 14.8418 54.5601 14.9938 54.3209 15.0978C54.0818 15.2017 53.8238 15.2552 53.563 15.255C53.295 15.255 53.042 15.2033 52.804 15.1C52.5595 14.9931 52.3395 14.8371 52.1576 14.6417C51.9758 14.4463 51.8361 14.2156 51.747 13.964C51.6402 13.6709 51.587 13.3609 51.59 13.049C51.59 12.703 51.6423 12.3937 51.747 12.121C51.8503 11.8483 51.9927 11.6167 52.174 11.426C52.3523 11.2398 52.5667 11.0918 52.804 10.991C53.0439 10.8913 53.3014 10.8406 53.5612 10.8418C53.821 10.843 54.078 10.8961 54.317 10.998C54.5597 11.1013 54.7717 11.2507 54.953 11.446C55.135 11.6407 55.2797 11.872 55.387 12.14C55.4963 12.408 55.5507 12.711 55.55 13.049ZM57.113 16.476V7H55.525V10.686C55.2622 10.3545 54.9458 10.0693 54.589 9.842C54.2157 9.6 53.7483 9.479 53.187 9.479C52.7788 9.47789 52.3744 9.55741 51.997 9.713C51.6112 9.8685 51.2633 10.1052 50.977 10.407C50.683 10.7137 50.4473 11.088 50.27 11.53C50.092 11.9707 50.003 12.477 50.003 13.049C50.003 13.6197 50.0943 14.126 50.277 14.568C50.4583 15.008 50.6963 15.3823 50.991 15.691C51.2857 15.9977 51.6237 16.229 52.005 16.385C52.385 16.541 52.7793 16.619 53.188 16.619C53.7407 16.619 54.2057 16.4933 54.583 16.242C54.9603 15.9913 55.2743 15.6887 55.525 15.334V16.476H57.113ZM46.825 12.958L49.26 9.622H47.58L45.99 11.88L44.401 9.622H42.683L45.118 12.997L42.591 16.475H44.271L45.951 14.074L47.645 16.475H49.365L46.825 12.958ZM36.901 12.568C36.9697 12.0327 37.163 11.598 37.481 11.264C37.7977 10.9307 38.199 10.764 38.685 10.764C38.945 10.764 39.1773 10.8117 39.382 10.907C39.5867 11.0023 39.7623 11.13 39.909 11.29C40.057 11.45 40.1743 11.64 40.261 11.86C40.3477 12.0813 40.404 12.3173 40.43 12.568H36.901ZM36.914 13.608H41.967C41.9834 13.4652 41.9921 13.3217 41.993 13.178C41.993 12.6847 41.9233 12.2133 41.784 11.764C41.6553 11.3343 41.4451 10.9334 41.165 10.583C40.8853 10.2423 40.534 9.96748 40.136 9.778C39.724 9.57867 39.244 9.479 38.696 9.479C38.2013 9.479 37.75 9.57433 37.342 9.765C36.934 9.95567 36.5803 10.213 36.281 10.537C35.981 10.8623 35.7487 11.241 35.584 11.673C35.418 12.1168 35.3343 12.5872 35.337 13.061C35.337 13.5983 35.428 14.085 35.61 14.521C35.7927 14.959 36.0427 15.3337 36.36 15.645C36.676 15.9563 37.0493 16.1987 37.48 16.372C37.9093 16.5453 38.3713 16.632 38.866 16.632C39.5 16.632 40.0447 16.515 40.5 16.281C40.9514 16.051 41.3523 15.7331 41.679 15.346L40.754 14.529C40.4767 14.797 40.1947 15.0003 39.908 15.139C39.5895 15.2844 39.242 15.3552 38.892 15.346C38.3793 15.346 37.945 15.1967 37.589 14.898C37.2343 14.6 37.0093 14.17 36.914 13.608ZM31.964 12.646V16.476H33.554V7.39H31.964V11.167H27.59V7.39H26V16.476H27.589V12.646H31.964Z" fill="#696969"/>
</g>
</g>
<defs>
<clipPath id="clip0_291_2093">
<rect width="78" height="24" fill="white"/>
</clipPath>
</defs>
</svg>
