<svg width="86" height="24" viewBox="0 0 86 24" fill="none" xmlns="http://www.w3.org/2000/svg">
<g clip-path="url(#clip0_291_2085)">
<rect width="86" height="24" fill="#696969"/>
<mask id="mask0_291_2085" style="mask-type:luminance" maskUnits="userSpaceOnUse" x="0" y="0" width="86" height="24">
<path d="M0 0H86V24H0V0Z" fill="white"/>
</mask>
<g mask="url(#mask0_291_2085)">
<path d="M15.7428 20.1276H11.0928C12.4238 20.1277 13.7011 19.6022 14.6468 18.6656C15.5848 17.7221 16.1118 16.446 16.1128 15.1156C16.1128 12.3516 13.8648 10.1186 11.0928 10.1186C12.4238 10.1187 13.7011 9.59324 14.6468 8.65658C15.5168 7.77866 16.0354 6.61265 16.1048 5.37858C16.2418 2.87258 14.3408 0.735583 11.9148 0.221583C12.3265 0.140704 12.7452 0.100511 13.1648 0.101583H15.4688C18.3768 0.101583 20.9148 2.49458 20.7618 5.37858C20.6959 6.61508 20.1735 7.78314 19.2958 8.65658C18.3497 9.59208 17.0733 10.1173 15.7428 10.1186C18.5148 10.1186 20.7628 12.3516 20.7628 15.1146C20.7628 16.5046 20.1978 17.7496 19.2958 18.6656C18.3497 19.6011 17.0733 20.1263 15.7428 20.1276Z" fill="#696969"/>
<path d="M13.3658 20.1276H11.0938C12.4245 20.1274 13.7013 19.602 14.6468 18.6656C15.5848 17.7221 16.1118 16.446 16.1128 15.1156C16.1128 12.3516 13.8648 10.1186 11.0928 10.1186C12.4238 10.1187 13.7011 9.59324 14.6468 8.65658C15.5168 7.77866 16.0354 6.61265 16.1048 5.37858C16.2418 2.87258 14.3408 0.735583 11.9148 0.221583C12.3265 0.140704 12.7452 0.100511 13.1648 0.101583C16.0488 0.141583 18.5388 2.51858 18.3768 5.37858C18.3105 6.61179 17.7947 7.77798 16.9268 8.65658C15.9781 9.59311 14.6988 10.1183 13.3658 10.1186C16.1458 10.1186 18.3928 12.3516 18.3928 15.1146C18.3928 16.5046 17.8288 17.7496 16.9268 18.6656C15.9787 19.603 14.699 20.1284 13.3658 20.1276Z" fill="#696969"/>
<path d="M4.36786 23.9934C3.52786 23.9414 2.70086 23.5954 2.02986 23.0784C0.340864 21.7784 -0.387136 19.3644 0.300864 17.3504C0.989864 15.3364 3.04386 13.8684 5.17886 13.8664C2.66486 13.8664 0.321864 11.7844 0.0308642 9.29639C-0.260136 6.80639 1.54086 4.24339 3.98686 3.66639C4.84686 3.46339 5.75686 3.48039 6.59686 3.20639C7.70186 2.84539 8.57786 2.02139 9.48186 1.29339C11.1019 -0.012612 12.7309 -0.532612 14.5519 0.699388C16.0659 1.72439 17.0679 3.55539 16.9229 5.39839C16.7229 7.94839 14.3529 10.1384 11.7889 10.1484C14.3219 10.1554 16.6739 12.2734 16.9379 14.7854C17.2019 17.2974 15.3409 19.8554 12.8649 20.3864C12.0439 20.5624 11.1819 20.5394 10.3829 20.7964C8.45786 21.4134 7.23986 23.5224 5.25986 23.9324C4.96386 23.9924 4.66653 24.0127 4.36786 23.9934ZM26.7999 14.8124C26.2065 14.5424 25.7372 14.1751 25.3919 13.7104C25.0517 13.26 24.8589 12.7155 24.8399 12.1514H26.8779C26.9119 12.5541 27.1045 12.8901 27.4559 13.1594C27.8079 13.4294 28.2485 13.5644 28.7779 13.5644C29.3312 13.5644 29.7602 13.4584 30.0649 13.2464C30.3695 13.0337 30.5219 12.7607 30.5219 12.4274C30.5219 12.0714 30.3519 11.8074 30.0119 11.6354C29.6732 11.4634 29.1352 11.2737 28.3979 11.0664C27.8058 10.9109 27.2232 10.7216 26.6529 10.4994C26.203 10.3146 25.8036 10.0253 25.4879 9.65539C25.1599 9.27605 24.9955 8.77672 24.9949 8.15739C24.9949 7.65139 25.1449 7.18905 25.4449 6.77039C25.7442 6.35039 26.1729 6.02039 26.7309 5.78039C27.2889 5.54039 27.9309 5.42005 28.6569 5.41939C29.7389 5.41939 30.6109 5.69172 31.2729 6.23639C31.9355 6.78305 32.2899 7.52672 32.3359 8.46739H30.3669C30.3329 8.04205 30.1602 7.70339 29.8489 7.45139C29.5382 7.19872 29.1182 7.07205 28.5889 7.07139C28.0702 7.07205 27.6725 7.16972 27.3959 7.36439C27.1199 7.56039 26.9815 7.81872 26.9809 8.13939C26.9809 8.39272 27.0732 8.60539 27.2579 8.77739C27.4419 8.94939 27.6665 9.08439 27.9319 9.18239C28.1965 9.27905 28.5879 9.40239 29.1059 9.55239C29.7965 9.73572 30.3635 9.92205 30.8069 10.1114C31.2502 10.3007 31.6332 10.5791 31.9559 10.9464C32.2785 11.3144 32.4452 11.8027 32.4559 12.4114C32.4559 12.9514 32.3065 13.4334 32.0079 13.8574C31.7079 14.2827 31.2845 14.6161 30.7379 14.8574C30.1912 15.0974 29.5492 15.2177 28.8119 15.2184C28.0639 15.2184 27.3932 15.0831 26.7999 14.8124ZM36.2749 14.6054C35.555 14.2036 34.9625 13.6076 34.5649 12.8854C34.1502 12.1434 33.9429 11.2851 33.9429 10.3104C33.9429 9.34506 34.1559 8.48972 34.5819 7.74439C34.9882 7.01643 35.593 6.4189 36.3259 6.02139C37.0625 5.61939 37.8859 5.41872 38.7959 5.41939C39.7059 5.41939 40.5292 5.62005 41.2659 6.02139C41.9991 6.41875 42.6042 7.01629 43.0109 7.74439C43.4362 8.48972 43.6492 9.34506 43.6499 10.3104C43.6492 11.2744 43.4305 12.1291 42.9939 12.8744C42.5712 13.607 41.9518 14.2066 41.2059 14.6054C40.4389 15.017 39.5802 15.2279 38.7099 15.2184C37.8119 15.2184 37.0002 15.0141 36.2749 14.6054ZM40.1349 13.1514C40.59 12.8988 40.9644 12.5227 41.2149 12.0664C41.4909 11.5837 41.6289 10.9984 41.6289 10.3104C41.6289 9.62039 41.4965 9.03739 41.2319 8.56139C40.99 8.11014 40.6248 7.73696 40.1789 7.48539C39.7452 7.24565 39.2574 7.12102 38.7619 7.12339C38.2552 7.12339 37.7862 7.24405 37.3549 7.48539C36.9222 7.72605 36.5795 8.08472 36.3269 8.56139C36.0735 9.03805 35.9469 9.62106 35.9469 10.3104C35.9469 11.3317 36.2089 12.1207 36.7329 12.6774C37.2569 13.2347 37.9162 13.5131 38.7109 13.5124C39.2169 13.5124 39.6915 13.3921 40.1349 13.1514ZM49.5909 7.17539H47.8299V15.0624H45.8429V7.17539H44.7199V5.57439H45.8429V4.90239C45.8429 3.81239 46.1335 3.01739 46.7149 2.51739C47.2962 2.01739 48.2089 1.76805 49.4529 1.76939V3.40439C48.8542 3.40439 48.4342 3.51639 48.1929 3.74039C47.9502 3.96372 47.8292 4.35105 47.8299 4.90239V5.57439H49.5909V7.17539ZM53.6329 7.17539V12.4284C53.6329 12.7837 53.7162 13.0391 53.8829 13.1944C54.0495 13.3497 54.3345 13.4274 54.7379 13.4274H55.9469V15.0624H54.3919C53.5052 15.0624 52.8259 14.8557 52.3539 14.4424C51.8819 14.0291 51.6459 13.3574 51.6459 12.4274V7.17539H50.5229V5.57439H51.6459V3.21439H53.6329V5.57439H55.9469V7.17539H53.6329ZM61.1029 5.85839C61.6849 5.56505 62.3325 5.41872 63.0459 5.41939C63.8859 5.41939 64.6459 5.62039 65.3259 6.02239C66.0059 6.42372 66.5415 6.99439 66.9329 7.73439C67.3242 8.47572 67.5199 9.32239 67.5199 10.2744C67.5199 11.2277 67.3242 12.0804 66.9329 12.8324C66.5662 13.5554 66.007 14.1631 65.3169 14.5884C64.634 15.0073 63.847 15.2256 63.0459 15.2184C62.3092 15.2184 61.6559 15.0744 61.0859 14.7864C60.5159 14.4997 60.0639 14.1327 59.7299 13.6854V15.0624H57.7599V2.31939H59.7299V6.98639C60.0632 6.52639 60.5209 6.15039 61.1029 5.85839ZM65.1099 8.57939C64.8605 8.12539 64.4901 7.74945 64.0399 7.49339C63.6043 7.24936 63.1131 7.12192 62.6139 7.12339C62.1185 7.12339 61.6495 7.25005 61.2069 7.50339C60.7629 7.75605 60.4055 8.12305 60.1349 8.60439C59.8649 9.08639 59.7299 9.65506 59.7299 10.3104C59.7299 10.9637 59.8649 11.5344 60.1349 12.0224C60.3129 12.3571 60.5568 12.6523 60.8519 12.8903C61.147 13.1283 61.4872 13.3041 61.852 13.4071C62.2168 13.5102 62.5987 13.5384 62.9747 13.4899C63.3507 13.4415 63.713 13.3175 64.0399 13.1254C64.4825 12.8654 64.8392 12.4894 65.1099 11.9974C65.3799 11.5041 65.5152 10.9297 65.5159 10.2744C65.5159 9.62106 65.3805 9.05606 65.1099 8.57939ZM69.4099 7.74439C69.7832 7.03456 70.3452 6.44148 71.0339 6.03039C71.7206 5.62255 72.5062 5.4112 73.3049 5.41939C74.0542 5.41939 74.7075 5.56572 75.2649 5.85839C75.8249 6.15039 76.2715 6.51472 76.6049 6.95139V5.57339H78.5909V15.0624H76.6049V13.6504C76.2709 14.0977 75.8159 14.4711 75.2399 14.7704C74.6639 15.0691 74.0075 15.2184 73.2709 15.2184C72.4535 15.2184 71.7052 15.0084 71.0259 14.5884C70.3459 14.1704 69.8075 13.5851 69.4109 12.8324C69.0129 12.0804 68.8139 11.2281 68.8139 10.2754C68.8139 9.32272 69.0119 8.47905 69.4099 7.74439ZM76.1999 8.60439C75.9529 8.14703 75.5853 7.7662 75.1369 7.50339C74.707 7.2532 74.2182 7.12204 73.7209 7.12339C73.2135 7.12339 72.7415 7.24672 72.3049 7.49339C71.8563 7.75045 71.4877 8.12668 71.2399 8.58039C70.9699 9.05705 70.8345 9.62239 70.8339 10.2764C70.8339 10.9311 70.9692 11.5051 71.2399 11.9984C71.5105 12.4917 71.8675 12.8681 72.3109 13.1274C72.7542 13.3847 73.2235 13.5134 73.7189 13.5134C74.2255 13.5134 74.6975 13.3874 75.1349 13.1354C75.5722 12.8834 75.9265 12.5131 76.1979 12.0244C76.4679 11.5357 76.6029 10.9647 76.6029 10.3114C76.6029 9.65605 76.4679 9.08739 76.1979 8.60539M84.2989 5.82339C84.7769 5.55405 85.3442 5.41939 86.0009 5.41939V7.45139H85.4989C84.7275 7.45139 84.1435 7.64639 83.7469 8.03639C83.3495 8.42639 83.1509 9.10372 83.1509 10.0684V15.0624H81.1809V5.57339H83.1509V6.95139C83.4375 6.46939 83.8202 6.09339 84.2989 5.82339Z" fill="#696969"/>
</g>
</g>
<defs>
<clipPath id="clip0_291_2085">
<rect width="86" height="24" fill="white"/>
</clipPath>
</defs>
</svg>
