<svg width="108" height="24" viewBox="0 0 108 24" fill="none" xmlns="http://www.w3.org/2000/svg">
<g clip-path="url(#clip0_291_2277)">
<rect width="108" height="24" fill="white"/>
<mask id="mask0_291_2277" style="mask-type:luminance" maskUnits="userSpaceOnUse" x="0" y="0" width="108" height="24">
<path d="M0 0H108V24H0V0Z" fill="white"/>
</mask>
<g mask="url(#mask0_291_2277)">
<path d="M12.46 5.00586L12.666 5.12986L16.12 7.12786L16.202 7.18986H16.223L16.429 7.31286L12.255 9.72286L8.225 12.0099H8.204L4.214 9.70286L12.46 5.00586ZM0 12.2359L3.886 14.5019L4.154 14.6469L12.254 19.3429V23.9999L8.101 21.5699L4.154 19.2619L0 16.8309V12.2359Z" fill="white"/>
<path d="M4.215 9.70266L8.205 12.0097H8.225L12.255 14.3587L16.038 16.5627L16.244 16.6867L16.449 16.8097L16.552 16.8717L20.212 18.9937L20.418 23.5257L16.532 21.5897L16.326 21.7127L12.276 23.9997H12.255V19.3437L4.154 14.6467L3.886 14.5027L0 12.2367V12.1127L4.154 9.74366L4.215 9.70266ZM12.255 0.472656L12.461 5.00566L4.215 9.70266L4.154 5.10866L8.41 2.65666L12.255 0.472656Z" fill="white"/>
<path d="M20.3969 0H20.4179V4.656L28.5189 9.353L28.7869 9.497L32.6729 11.763L28.5189 14.256L28.4579 14.297L24.4679 11.99H24.4479L20.4179 9.641L16.6549 7.437L16.4289 7.313L16.2239 7.19H16.2029L16.1209 7.128L12.6659 5.13L12.4599 5.006L12.2549 0.474L16.1399 2.41L16.3459 2.287L20.3969 0Z" fill="white"/>
<path d="M24.4481 11.99H24.4681L28.4581 14.297L20.2121 18.994L16.5521 16.872L16.4491 16.81L16.2441 16.687L20.4181 14.276L24.4481 11.99ZM20.4181 0L24.5721 2.43L28.5191 4.738L32.6731 7.169V11.763L28.7871 9.497L28.5191 9.353L20.4181 4.656V0ZM16.1201 7.128L16.2021 7.19L16.1201 7.149V7.128Z" fill="white"/>
<path d="M28.4578 14.2988L28.5198 14.3388V18.8918L24.2628 21.3438L20.4178 23.5278L20.2118 18.9948L28.4578 14.2988ZM16.5518 16.8738L20.0268 18.8718L20.2118 18.9958L16.5518 16.8738Z" fill="white"/>
<path d="M58.647 8.04441L54.795 21.2394H51.206L48.806 12.0224L46.405 21.2394H42.79L38.916 8.04441H42.292L44.621 18.0954L47.141 8.04541H50.659L53.131 18.0714L55.461 8.04441H58.647ZM60.68 5.91241C60.2913 5.54041 60.0973 5.07607 60.098 4.51941C60.098 3.96341 60.292 3.49907 60.68 3.12641C61.0667 2.75307 61.5533 2.56641 62.14 2.56641C62.7267 2.56641 63.2143 2.75307 63.603 3.12641C63.9923 3.49974 64.1867 3.96407 64.186 4.51941C64.186 5.07541 63.9917 5.53974 63.603 5.91241C63.215 6.28574 62.7277 6.47241 62.141 6.47241C61.5543 6.47241 61.0673 6.28574 60.68 5.91241ZM63.781 8.04441V21.2394H60.453V8.04441H63.781ZM74.337 21.2394L71.627 17.1434L69.226 21.2404H65.66L69.963 14.6184L65.612 8.04441H69.369L72.054 12.1174L74.48 8.04441H78.046L73.72 14.6194L78.094 21.2404L74.337 21.2394ZM83.229 3.61441V21.2404H79.9V3.61441H83.229ZM98.658 15.6424H89.029C89.109 16.5957 89.4417 17.3421 90.027 17.8814C90.6137 18.4214 91.3353 18.6914 92.192 18.6914C93.428 18.6914 94.308 18.1594 94.832 17.0954H98.42C98.04 18.3654 97.3113 19.4094 96.234 20.2274C95.1553 21.0454 93.832 21.4541 92.264 21.4534C90.9947 21.4534 89.857 21.1717 88.851 20.6084C87.8528 20.0532 87.0359 19.222 86.498 18.2144C85.9353 17.1824 85.6543 15.9914 85.655 14.6414C85.6543 13.2767 85.9317 12.0777 86.487 11.0444C87.0139 10.0401 87.8236 9.2123 88.816 8.66341C89.814 8.10807 90.963 7.83007 92.263 7.82941C93.5143 7.82941 94.6353 8.09941 95.626 8.63941C96.6167 9.17941 97.3853 9.94541 97.932 10.9374C98.4787 11.9287 98.752 13.0684 98.752 14.3564C98.7527 14.8317 98.7213 15.2604 98.658 15.6424ZM95.305 13.4024C95.289 12.5464 94.98 11.8601 94.378 11.3434C93.7767 10.8274 93.0397 10.5694 92.167 10.5694C91.343 10.5694 90.6497 10.8194 90.087 11.3194C89.5243 11.8194 89.18 12.5141 89.054 13.4034L95.305 13.4024ZM105.051 10.7834V17.1674C105.051 17.6114 105.158 17.9331 105.373 18.1324C105.586 18.3304 105.947 18.4294 106.454 18.4294H108V21.2404H105.907C103.101 21.2404 101.698 19.8751 101.699 17.1444V10.7844H100.13V8.04441H101.699V4.78141H105.051V8.04441H108V10.7844L105.051 10.7834Z" fill="white"/>
</g>
</g>
<defs>
<clipPath id="clip0_291_2277">
<rect width="108" height="24" fill="white"/>
</clipPath>
</defs>
</svg>
