<svg width="93" height="24" viewBox="0 0 93 24" fill="none" xmlns="http://www.w3.org/2000/svg">
<g clip-path="url(#clip0_291_2222)">
<rect width="93" height="24" fill="white"/>
<mask id="mask0_291_2222" style="mask-type:luminance" maskUnits="userSpaceOnUse" x="0" y="0" width="93" height="24">
<path d="M0 0H93V24H0V0Z" fill="white"/>
</mask>
<g mask="url(#mask0_291_2222)">
<mask id="mask1_291_2222" style="mask-type:luminance" maskUnits="userSpaceOnUse" x="1" y="3" width="12" height="7">
<path d="M1.92383 3.46484L5.47083 9.32284H12.5108L8.90983 3.46484H1.92383Z" fill="white"/>
</mask>
<g mask="url(#mask1_291_2222)">
<path d="M14.436 4.18L11.216 12.785L0 8.605L3.22 0L14.436 4.18Z" fill="white"/>
</g>
<mask id="mask2_291_2222" style="mask-type:luminance" maskUnits="userSpaceOnUse" x="1" y="9" width="12" height="7">
<path d="M5.47083 9.32227L1.92383 15.1803H8.90983L12.5118 9.32227H5.47083Z" fill="white"/>
</mask>
<g mask="url(#mask2_291_2222)">
<path d="M14.436 10.0404L11.216 18.6444L0 14.4644L3.22 5.85938L14.436 10.0404Z" fill="white"/>
</g>
<mask id="mask3_291_2222" style="mask-type:luminance" maskUnits="userSpaceOnUse" x="12" y="9" width="12" height="7">
<path d="M12.5117 9.32227L16.1147 15.1803H23.0987L19.5517 9.32227H12.5117Z" fill="white"/>
</mask>
<g mask="url(#mask3_291_2222)">
<path d="M25.0239 10.0404L21.8039 18.6444L10.5879 14.4644L13.8079 5.85938L25.0239 10.0404Z" fill="white"/>
</g>
<mask id="mask4_291_2222" style="mask-type:luminance" maskUnits="userSpaceOnUse" x="12" y="3" width="12" height="7">
<path d="M16.1147 3.46484L12.5117 9.32284H19.5517L23.0997 3.46484H16.1147Z" fill="white"/>
</mask>
<g mask="url(#mask4_291_2222)">
<path d="M25.0239 4.182L21.8039 12.786L10.5879 8.606L13.8079 0L25.0239 4.182Z" fill="white"/>
</g>
<mask id="mask5_291_2222" style="mask-type:luminance" maskUnits="userSpaceOnUse" x="7" y="15" width="11" height="6">
<path d="M12.5133 20.8236L17.3693 15.9776L7.6543 15.9746L12.5133 20.8236Z" fill="white"/>
</mask>
<g mask="url(#mask5_291_2222)">
<path d="M18.9615 16.5679L16.1805 23.9999L6.06152 20.2299L8.84352 12.7969L18.9615 16.5679Z" fill="white"/>
</g>
<mask id="mask6_291_2222" style="mask-type:luminance" maskUnits="userSpaceOnUse" x="23" y="3" width="15" height="14">
<path d="M27.9548 3.99389C27.1088 4.33007 26.3377 4.83034 25.6858 5.46589C25.1215 6.01641 24.6775 6.67801 24.3818 7.40889C24.0801 8.16918 23.9293 8.98095 23.9378 9.79889C23.9378 11.5636 24.5162 13.0189 25.6728 14.1649C26.3216 14.7989 27.0907 15.2967 27.9348 15.6289C28.8365 15.9808 29.797 16.1573 30.7648 16.1489C31.8382 16.1489 32.8238 15.9756 33.7218 15.6289C34.5795 15.3067 35.3632 14.8145 36.0258 14.1819C37.2278 13.0126 37.8292 11.5129 37.8298 9.68289V8.98789H30.2528V11.3029H35.1228C34.9568 11.6669 34.7325 12.0032 34.4498 12.3119C34.1672 12.6206 33.8388 12.8879 33.4648 13.1139C33.0749 13.3458 32.654 13.5212 32.2148 13.6349C31.7413 13.7575 31.254 13.8187 30.7648 13.8169C30.2105 13.8217 29.6593 13.7325 29.1348 13.5529C28.6568 13.39 28.2088 13.1494 27.8088 12.8409C26.8288 12.0696 26.3388 11.0552 26.3388 9.79789C26.3388 9.22456 26.4452 8.69556 26.6578 8.21089C26.8712 7.72556 27.1718 7.30389 27.5598 6.94589C27.9492 6.58722 28.4138 6.30589 28.9538 6.10189C29.5296 5.8928 30.1383 5.78915 30.7508 5.79589C31.4355 5.79589 32.0575 5.92789 32.6168 6.19189C33.1768 6.45722 33.6652 6.84889 34.0818 7.36689L36.6218 6.30789C36.0291 5.39487 35.1991 4.66031 34.2208 4.18289C33.2395 3.70289 32.0878 3.46289 30.7658 3.46289C29.7658 3.46489 28.8288 3.64189 27.9548 3.99389Z" fill="white"/>
</mask>
<g mask="url(#mask6_291_2222)">
<path d="M37.8285 3.46484H23.9385V16.1508H37.8285V3.46484Z" fill="white"/>
</g>
<mask id="mask7_291_2222" style="mask-type:luminance" maskUnits="userSpaceOnUse" x="40" y="3" width="12" height="13">
<path d="M40.2695 3.82812V15.8031H51.5515V13.5201H42.7115V10.8741H48.5815V8.59013H42.7115V6.11013H51.1625V3.82812H40.2695Z" fill="white"/>
</mask>
<g mask="url(#mask7_291_2222)">
<path d="M51.5515 3.82812H40.2695V15.8031H51.5515V3.82812Z" fill="white"/>
</g>
<mask id="mask8_291_2222" style="mask-type:luminance" maskUnits="userSpaceOnUse" x="52" y="3" width="15" height="13">
<path d="M63.4298 3.82812L59.0868 12.5941L54.7438 3.82812H52.0098L57.9498 15.8031H60.2238L66.1638 3.82812H63.4298Z" fill="white"/>
</mask>
<g mask="url(#mask8_291_2222)">
<path d="M66.1638 3.82812H52.0098V15.8031H66.1638V3.82812Z" fill="white"/>
</g>
<mask id="mask9_291_2222" style="mask-type:luminance" maskUnits="userSpaceOnUse" x="64" y="3" width="15" height="13">
<path d="M71.8251 6.02712L74.0321 10.9401H69.6191L71.8251 6.02712ZM70.3401 3.82812L64.9971 15.8031H67.4671L68.6191 13.2231H75.0581L76.2101 15.8031H78.6801L73.3501 3.82812H70.3401Z" fill="white"/>
</mask>
<g mask="url(#mask9_291_2222)">
<path d="M78.6801 3.82812H64.9971V15.8031H78.6801V3.82812Z" fill="white"/>
</g>
<mask id="mask10_291_2222" style="mask-type:luminance" maskUnits="userSpaceOnUse" x="80" y="3" width="13" height="13">
<path d="M82.6207 6.11013H87.0747C87.5647 6.11013 88.016 6.20413 88.4287 6.39213C88.8387 6.58013 89.1924 6.84346 89.4897 7.18213C89.7857 7.51879 90.017 7.92012 90.1837 8.38612C90.3504 8.85079 90.4337 9.35479 90.4337 9.89812C90.4375 10.6373 90.2198 11.3608 89.8087 11.9751C89.5044 12.442 89.093 12.8294 88.6087 13.1051C88.1481 13.3764 87.6233 13.5197 87.0887 13.5201H82.6207V6.11013ZM80.1787 3.82812V15.8031H87.2557C88.0237 15.8031 88.7474 15.6708 89.4267 15.4061C90.0892 15.1519 90.6951 14.7696 91.2097 14.2811C92.403 13.1565 92.9997 11.7121 92.9997 9.94812C92.9997 9.03346 92.8587 8.19812 92.5767 7.44212C92.3144 6.71785 91.9001 6.05808 91.3617 5.50712C90.819 4.96213 90.1661 4.53936 89.4467 4.26713C88.6974 3.97513 87.8557 3.82879 86.9217 3.82812H80.1787Z" fill="white"/>
</mask>
<g mask="url(#mask10_291_2222)">
<path d="M92.9997 3.82812H80.1797V15.8031H92.9997V3.82812Z" fill="white"/>
</g>
</g>
</g>
<defs>
<clipPath id="clip0_291_2222">
<rect width="93" height="24" fill="white"/>
</clipPath>
</defs>
</svg>
