<svg width="97" height="24" viewBox="0 0 97 24" fill="none" xmlns="http://www.w3.org/2000/svg">
<g clip-path="url(#clip0_291_2215)">
<rect width="97" height="24" fill="white"/>
<mask id="mask0_291_2215" style="mask-type:luminance" maskUnits="userSpaceOnUse" x="0" y="0" width="97" height="24">
<path d="M0 0H97V24H0V0Z" fill="white"/>
</mask>
<g mask="url(#mask0_291_2215)">
<path fill-rule="evenodd" clip-rule="evenodd" d="M2.692 13.903L8.198 4.392C7.73421 3.91007 7.47571 3.26685 7.477 2.598C7.47859 1.90807 7.75391 1.24697 8.24252 0.759866C8.73112 0.27276 9.39307 -0.000530958 10.083 7.74477e-07C10.7731 -0.000530532 11.4352 0.272898 11.9238 0.760219C12.4125 1.24754 12.6877 1.9089 12.689 2.599C12.689 3.294 12.415 3.927 11.968 4.392L17.478 13.903H17.564C18.254 13.9022 18.9161 14.1754 19.4048 14.6626C19.8934 15.1497 20.1687 15.811 20.17 16.501C20.1687 17.1911 19.8935 17.8525 19.4048 18.3398C18.9162 18.8271 18.2541 19.1005 17.564 19.1C16.8739 19.1005 16.2118 18.8271 15.7232 18.3398C15.2345 17.8525 14.9593 17.1911 14.958 16.501C14.958 15.997 15.103 15.525 15.354 15.126L10.083 6.021L4.816 15.122C5.066 15.521 5.212 15.99 5.212 16.498C5.21041 17.1879 4.93509 17.849 4.44648 18.3361C3.95788 18.8232 3.29593 19.0965 2.606 19.096C1.91607 19.0965 1.25412 18.8232 0.76552 18.3361C0.276915 17.849 0.0015895 17.1879 0 16.498C0.00100607 16.1493 0.0720512 15.8043 0.20892 15.4835C0.345789 15.1628 0.545692 14.8728 0.796769 14.6307C1.04785 14.3887 1.34498 14.1996 1.67054 14.0746C1.99611 13.9496 2.34346 13.8912 2.692 13.903ZM17.477 10.101H17.564C18.2542 10.1018 18.9164 9.82845 19.4051 9.34107C19.8938 8.8537 20.1689 8.19219 20.17 7.502C20.1684 6.81207 19.8931 6.15097 19.4045 5.66387C18.9159 5.17676 18.2539 4.90347 17.564 4.904C16.8741 4.90347 16.2121 5.17676 15.7235 5.66387C15.2349 6.15097 14.9596 6.81207 14.958 7.502C14.958 8.007 15.103 8.479 15.354 8.878L15.314 8.948L16.729 11.39L17.477 10.101ZM14.609 15.051L13.194 12.61L10.087 17.979L6.975 12.609L5.561 15.052L8.201 19.612C7.73782 20.0938 7.4797 20.7366 7.481 21.405C7.48232 22.0951 7.75753 22.7565 8.24617 23.2438C8.7348 23.7311 9.3969 24.0045 10.087 24.004C10.7771 24.0045 11.4392 23.7311 11.9278 23.2438C12.4165 22.7565 12.6917 22.0951 12.693 21.405C12.693 20.71 12.418 20.077 11.972 19.612L14.609 15.051ZM3.441 11.395L4.855 8.953L4.816 8.883C5.066 8.484 5.212 8.015 5.212 7.507C5.21041 6.81707 4.93509 6.15597 4.44648 5.66887C3.95788 5.18176 3.29593 4.90847 2.606 4.909C2.26431 4.90821 1.92582 4.97478 1.60987 5.1049C1.29393 5.23502 1.00673 5.42615 0.764704 5.66734C0.522675 5.90853 0.330561 6.19507 0.199347 6.51056C0.0681335 6.82605 0.000393347 7.16431 0 7.506C0.00132488 8.1961 0.276533 8.85746 0.765167 9.34478C1.2538 9.8321 1.9159 10.1055 2.606 10.105H2.692L3.441 11.395Z" fill="white"/>
<path fill-rule="evenodd" clip-rule="evenodd" d="M34.1747 17.1024L33.4147 15.2654H28.3747L27.6147 17.1024H25.0557L29.6457 6.89939H32.2037L36.7647 17.1024H34.1747ZM30.9197 9.18539L29.2387 13.2064H32.5687L30.9197 9.18539ZM43.5567 6.89939H46.2057L41.9927 17.1024H39.4657L35.2567 6.89939H37.9017L39.2777 10.3694L40.7237 14.3324L42.1997 10.3694L43.5567 6.89939ZM49.3127 15.0894H54.9557V17.1024H46.9887V6.89939H54.7947V8.89639H49.3127V10.9634H54.4997V12.8904H49.3117L49.3127 15.0894ZM60.2577 13.7344H58.8707V17.1024H56.4727V6.89939H61.4567C62.1967 6.90006 62.8447 7.04339 63.4007 7.32939C63.9392 7.59909 64.3862 8.02175 64.6857 8.54439C64.9883 9.06839 65.14 9.67039 65.1407 10.3504C65.14 11.1271 64.9373 11.7924 64.5327 12.3464C64.1293 12.8997 63.5573 13.2931 62.8167 13.5264L65.7127 17.0984H62.8637L60.2577 13.7344ZM62.7737 10.3814C62.7743 9.92339 62.636 9.56906 62.3587 9.31839C62.08 9.06506 61.688 8.93872 61.1827 8.93939H58.8587V11.8114H61.1827C61.6993 11.8107 62.0937 11.6871 62.3657 11.4404C62.6363 11.1911 62.7723 10.8381 62.7737 10.3814ZM70.5917 13.7344H69.2047V17.1024H66.8067V6.89939H71.7907C72.5307 6.90006 73.1787 7.04339 73.7347 7.32939C74.2732 7.59909 74.7202 8.02175 75.0197 8.54439C75.3223 9.06839 75.474 9.67039 75.4747 10.3504C75.474 11.1271 75.2713 11.7924 74.8667 12.3464C74.4633 12.8997 73.8913 13.2931 73.1507 13.5264L76.0467 17.0984H73.1967L70.5917 13.7344ZM73.1037 10.3814C73.1043 9.92339 72.966 9.56906 72.6887 9.31839C72.41 9.06506 72.018 8.93872 71.5127 8.93939H69.1887V11.8114H71.5127C72.0287 11.8107 72.423 11.6871 72.6957 11.4404C72.9707 11.1904 73.1037 10.8384 73.1037 10.3814ZM82.0027 17.3494C80.9013 17.3487 79.9347 17.1271 79.1027 16.6844C78.2905 16.2631 77.6203 15.612 77.1757 14.8124C76.7207 14.0074 76.4977 13.0704 76.4977 11.9994C76.4977 10.9294 76.7247 9.99439 77.1747 9.18639C77.6214 8.38805 78.2915 7.73745 79.1027 7.31439C79.9367 6.87239 80.9033 6.65106 82.0027 6.65039C83.1053 6.65039 84.072 6.87172 84.9027 7.31439C85.7152 7.73553 86.3858 8.3866 86.8307 9.18639C87.2857 9.99139 87.5087 10.9284 87.5087 11.9994C87.5087 13.0694 87.2817 14.0044 86.8307 14.8124C86.3839 15.6107 85.7138 16.2613 84.9027 16.6844C84.0727 17.1304 83.1037 17.3494 82.0027 17.3494ZM82.0027 15.2224C82.6187 15.2224 83.1587 15.0894 83.6327 14.8194C84.101 14.5579 84.4827 14.1651 84.7307 13.6894C84.9887 13.2041 85.118 12.6404 85.1187 11.9984C85.1187 11.3584 84.9893 10.7944 84.7307 10.3064C84.483 9.83083 84.1017 9.43806 83.6337 9.17639C83.1587 8.91139 82.6187 8.77439 82.0037 8.77439C81.3877 8.77372 80.8467 8.90806 80.3807 9.17739C79.9171 9.44213 79.539 9.83385 79.2907 10.3064C79.0327 10.7924 78.9037 11.3564 78.9037 11.9984C78.9037 12.6384 79.033 13.2024 79.2917 13.6904C79.5503 14.1771 79.9133 14.5537 80.3807 14.8204C80.8507 15.0854 81.3917 15.2224 82.0027 15.2224ZM92.6847 17.3334C91.8636 17.3365 91.0472 17.2082 90.2667 16.9534C89.4907 16.7014 88.8207 16.3474 88.2567 15.8914L89.4987 14.1564C90.4053 14.8644 91.462 15.2187 92.6687 15.2194C93.274 15.2194 93.7537 15.1177 94.1077 14.9144C94.463 14.7117 94.6403 14.4344 94.6397 14.0824C94.6397 13.7504 94.4757 13.4954 94.1427 13.3084C93.8107 13.1244 93.284 12.9927 92.5627 12.9134C91.1693 12.7581 90.1493 12.4324 89.5027 11.9364C88.8557 11.4404 88.5307 10.7334 88.5307 9.80639C88.5307 9.18639 88.7077 8.63539 89.0557 8.16239C89.407 7.68639 89.8997 7.31772 90.5337 7.05639C91.1677 6.79372 91.8977 6.66206 92.7237 6.66139C93.4285 6.66065 94.1297 6.76341 94.8047 6.96639C95.4447 7.15326 96.0497 7.44378 96.5957 7.82639L95.4707 9.50239C94.6973 8.95602 93.7725 8.66511 92.8257 8.67039C92.231 8.67039 91.7557 8.76806 91.3997 8.96339C91.0437 9.15872 90.866 9.42039 90.8667 9.74839C90.8667 10.0684 91.0207 10.3161 91.3287 10.4914C91.6347 10.6664 92.1517 10.7954 92.8687 10.8854C94.2533 11.0414 95.2867 11.3841 95.9687 11.9134C96.6507 12.4444 96.9917 13.1674 96.9917 14.0934C96.9917 14.7347 96.8113 15.3014 96.4507 15.7934C96.0907 16.2861 95.584 16.6651 94.9307 16.9304C94.284 17.1997 93.5353 17.3341 92.6847 17.3334Z" fill="white"/>
</g>
</g>
<defs>
<clipPath id="clip0_291_2215">
<rect width="97" height="24" fill="white"/>
</clipPath>
</defs>
</svg>
