<svg width="86" height="24" viewBox="0 0 86 24" fill="none" xmlns="http://www.w3.org/2000/svg">
<g clip-path="url(#clip0_291_2190)">
<rect width="86" height="24" fill="white"/>
<mask id="mask0_291_2190" style="mask-type:luminance" maskUnits="userSpaceOnUse" x="0" y="0" width="86" height="24">
<path d="M0 0H86V24H0V0Z" fill="white"/>
</mask>
<g mask="url(#mask0_291_2190)">
<path d="M15.7428 20.1276H11.0928C12.4238 20.1277 13.7011 19.6022 14.6468 18.6656C15.5848 17.7221 16.1118 16.446 16.1128 15.1156C16.1128 12.3516 13.8648 10.1186 11.0928 10.1186C12.4238 10.1187 13.7011 9.59324 14.6468 8.65658C15.5168 7.77866 16.0354 6.61265 16.1048 5.37858C16.2418 2.87258 14.3408 0.735583 11.9148 0.221583C12.3265 0.140704 12.7452 0.100511 13.1648 0.101583H15.4688C18.3768 0.101583 20.9148 2.49458 20.7618 5.37858C20.6959 6.61508 20.1735 7.78314 19.2958 8.65658C18.3497 9.59208 17.0733 10.1173 15.7428 10.1186C18.5148 10.1186 20.7628 12.3516 20.7628 15.1146C20.7628 16.5046 20.1978 17.7496 19.2958 18.6656C18.3497 19.6011 17.0733 20.1263 15.7428 20.1276Z" fill="white"/>
<path d="M13.3658 20.1276H11.0938C12.4245 20.1274 13.7013 19.602 14.6468 18.6656C15.5848 17.7221 16.1118 16.446 16.1128 15.1156C16.1128 12.3516 13.8648 10.1186 11.0928 10.1186C12.4238 10.1187 13.7011 9.59324 14.6468 8.65658C15.5168 7.77866 16.0354 6.61265 16.1048 5.37858C16.2418 2.87258 14.3408 0.735583 11.9148 0.221583C12.3265 0.140704 12.7452 0.100511 13.1648 0.101583C16.0488 0.141583 18.5388 2.51858 18.3768 5.37858C18.3105 6.61179 17.7947 7.77798 16.9268 8.65658C15.9781 9.59311 14.6988 10.1183 13.3658 10.1186C16.1458 10.1186 18.3928 12.3516 18.3928 15.1146C18.3928 16.5046 17.8288 17.7496 16.9268 18.6656C15.9787 19.603 14.699 20.1284 13.3658 20.1276Z" fill="white"/>
<path d="M4.36786 23.9934C3.52786 23.9414 2.70086 23.5954 2.02986 23.0784C0.340864 21.7784 -0.387136 19.3644 0.300864 17.3504C0.989864 15.3364 3.04386 13.8684 5.17886 13.8664C2.66486 13.8664 0.321864 11.7844 0.0308642 9.29639C-0.260136 6.80639 1.54086 4.24339 3.98686 3.66639C4.84686 3.46339 5.75686 3.48039 6.59686 3.20639C7.70186 2.84539 8.57786 2.02139 9.48186 1.29339C11.1019 -0.012612 12.7309 -0.532612 14.5519 0.699388C16.0659 1.72439 17.0679 3.55539 16.9229 5.39839C16.7229 7.94839 14.3529 10.1384 11.7889 10.1484C14.3219 10.1554 16.6739 12.2734 16.9379 14.7854C17.2019 17.2974 15.3409 19.8554 12.8649 20.3864C12.0439 20.5624 11.1819 20.5394 10.3829 20.7964C8.45786 21.4134 7.23986 23.5224 5.25986 23.9324C4.96386 23.9924 4.66653 24.0127 4.36786 23.9934Z" fill="white"/>
<path d="M26.7998 14.8125C26.2065 14.5425 25.7372 14.1752 25.3918 13.7105C25.0517 13.2601 24.8589 12.7157 24.8398 12.1515H26.8778C26.9118 12.5542 27.1045 12.8902 27.4558 13.1595C27.8078 13.4295 28.2485 13.5645 28.7778 13.5645C29.3312 13.5645 29.7602 13.4585 30.0648 13.2465C30.3695 13.0339 30.5218 12.7609 30.5218 12.4275C30.5218 12.0715 30.3518 11.8075 30.0118 11.6355C29.6732 11.4635 29.1352 11.2739 28.3978 11.0665C27.8058 10.9111 27.2232 10.7218 26.6528 10.4995C26.203 10.3148 25.8036 10.0255 25.4878 9.65554C25.1598 9.2762 24.9955 8.77687 24.9948 8.15754C24.9948 7.65154 25.1448 7.1892 25.4448 6.77054C25.7442 6.35054 26.1728 6.02054 26.7308 5.78054C27.2888 5.54054 27.9308 5.4202 28.6568 5.41954C29.7388 5.41954 30.6108 5.69187 31.2728 6.23654C31.9355 6.7832 32.2898 7.52687 32.3358 8.46754H30.3668C30.3328 8.0422 30.1602 7.70354 29.8488 7.45154C29.5382 7.19887 29.1182 7.0722 28.5888 7.07154C28.0702 7.0722 27.6725 7.16987 27.3958 7.36454C27.1198 7.56054 26.9815 7.81887 26.9808 8.13954C26.9808 8.39287 27.0732 8.60554 27.2578 8.77754C27.4418 8.94954 27.6665 9.08454 27.9318 9.18254C28.1965 9.2792 28.5878 9.40254 29.1058 9.55254C29.7965 9.73587 30.3635 9.9222 30.8068 10.1115C31.2502 10.3009 31.6332 10.5792 31.9558 10.9465C32.2785 11.3145 32.4452 11.8029 32.4558 12.4115C32.4558 12.9515 32.3065 13.4335 32.0078 13.8575C31.7078 14.2829 31.2845 14.6162 30.7378 14.8575C30.1912 15.0975 29.5492 15.2179 28.8118 15.2185C28.0638 15.2185 27.3932 15.0832 26.7998 14.8125ZM36.2748 14.6055C35.555 14.2037 34.9624 13.6077 34.5648 12.8855C34.1502 12.1435 33.9428 11.2852 33.9428 10.3105C33.9428 9.3452 34.1558 8.48987 34.5818 7.74454C34.9882 7.01658 35.593 6.41905 36.3258 6.02154C37.0625 5.61954 37.8858 5.41887 38.7958 5.41954C39.7058 5.41954 40.5292 5.6202 41.2658 6.02154C41.999 6.4189 42.6042 7.01644 43.0108 7.74454C43.4362 8.48987 43.6492 9.3452 43.6498 10.3105C43.6492 11.2745 43.4305 12.1292 42.9938 12.8745C42.5711 13.6071 41.9518 14.2068 41.2058 14.6055C40.4389 15.0171 39.5802 15.228 38.7098 15.2185C37.8118 15.2185 37.0002 15.0142 36.2748 14.6055ZM40.1348 13.1515C40.5899 12.8989 40.9644 12.5228 41.2148 12.0665C41.4908 11.5839 41.6288 10.9985 41.6288 10.3105C41.6288 9.62054 41.4965 9.03754 41.2318 8.56154C40.99 8.11029 40.6248 7.73711 40.1788 7.48554C39.7452 7.24579 39.2573 7.12116 38.7618 7.12354C38.2552 7.12354 37.7862 7.2442 37.3548 7.48554C36.9222 7.7262 36.5795 8.08487 36.3268 8.56154C36.0735 9.0382 35.9468 9.6212 35.9468 10.3105C35.9468 11.3319 36.2088 12.1209 36.7328 12.6775C37.2568 13.2349 37.9162 13.5132 38.7108 13.5125C39.2168 13.5125 39.6915 13.3922 40.1348 13.1515ZM49.5908 7.17554H47.8298V15.0625H45.8428V7.17554H44.7198V5.57454H45.8428V4.90254C45.8428 3.81254 46.1335 3.01754 46.7148 2.51754C47.2962 2.01754 48.2088 1.7682 49.4528 1.76954V3.40454C48.8542 3.40454 48.4342 3.51654 48.1928 3.74054C47.9502 3.96387 47.8292 4.3512 47.8298 4.90254V5.57454H49.5908V7.17554ZM53.6328 7.17554V12.4285C53.6328 12.7839 53.7162 13.0392 53.8828 13.1945C54.0495 13.3499 54.3345 13.4275 54.7378 13.4275H55.9468V15.0625H54.3918C53.5052 15.0625 52.8258 14.8559 52.3538 14.4425C51.8818 14.0292 51.6458 13.3575 51.6458 12.4275V7.17554H50.5228V5.57454H51.6458V3.21454H53.6328V5.57454H55.9468V7.17554H53.6328ZM61.1028 5.85854C61.6848 5.5652 62.3325 5.41887 63.0458 5.41954C63.8858 5.41954 64.6458 5.62054 65.3258 6.02254C66.0058 6.42387 66.5415 6.99454 66.9328 7.73454C67.3242 8.47587 67.5198 9.32254 67.5198 10.2745C67.5198 11.2279 67.3242 12.0805 66.9328 12.8325C66.5662 13.5556 66.007 14.1632 65.3168 14.5885C64.6339 15.0074 63.847 15.2257 63.0458 15.2185C62.3092 15.2185 61.6558 15.0745 61.0858 14.7865C60.5158 14.4999 60.0638 14.1329 59.7298 13.6855V15.0625H57.7598V2.31954H59.7298V6.98654C60.0632 6.52654 60.5208 6.15054 61.1028 5.85854ZM65.1098 8.57954C64.8605 8.12554 64.4901 7.7496 64.0398 7.49354C63.6043 7.24951 63.1131 7.12206 62.6138 7.12354C62.1185 7.12354 61.6495 7.2502 61.2068 7.50354C60.7628 7.7562 60.4055 8.1232 60.1348 8.60454C59.8648 9.08654 59.7298 9.6552 59.7298 10.3105C59.7298 10.9639 59.8648 11.5345 60.1348 12.0225C60.3129 12.3572 60.5567 12.6525 60.8518 12.8905C61.147 13.1284 61.4872 13.3042 61.852 13.4073C62.2168 13.5103 62.5987 13.5385 62.9747 13.4901C63.3507 13.4417 63.713 13.3177 64.0398 13.1255C64.4825 12.8655 64.8392 12.4895 65.1098 11.9975C65.3798 11.5042 65.5152 10.9299 65.5158 10.2745C65.5158 9.6212 65.3805 9.0562 65.1098 8.57954ZM69.4098 7.74454C69.7832 7.03471 70.3452 6.44162 71.0338 6.03054C71.7206 5.6227 72.5062 5.41134 73.3048 5.41954C74.0542 5.41954 74.7075 5.56587 75.2648 5.85854C75.8248 6.15054 76.2715 6.51487 76.6048 6.95154V5.57354H78.5908V15.0625H76.6048V13.6505C76.2708 14.0979 75.8158 14.4712 75.2398 14.7705C74.6638 15.0692 74.0075 15.2185 73.2708 15.2185C72.4535 15.2185 71.7052 15.0085 71.0258 14.5885C70.3458 14.1705 69.8075 13.5852 69.4108 12.8325C69.0128 12.0805 68.8138 11.2282 68.8138 10.2755C68.8138 9.32287 69.0118 8.4792 69.4098 7.74454ZM76.1998 8.60454C75.9529 8.14718 75.5852 7.76635 75.1368 7.50354C74.707 7.25335 74.2182 7.12219 73.7208 7.12354C73.2135 7.12354 72.7415 7.24687 72.3048 7.49354C71.8563 7.7506 71.4877 8.12683 71.2398 8.58054C70.9698 9.0572 70.8345 9.62254 70.8338 10.2765C70.8338 10.9312 70.9692 11.5052 71.2398 11.9985C71.5105 12.4919 71.8675 12.8682 72.3108 13.1275C72.7542 13.3849 73.2235 13.5135 73.7188 13.5135C74.2255 13.5135 74.6975 13.3875 75.1348 13.1355C75.5722 12.8835 75.9265 12.5132 76.1978 12.0245C76.4678 11.5359 76.6028 10.9649 76.6028 10.3115C76.6028 9.6562 76.4678 9.08754 76.1978 8.60554M84.2988 5.82354C84.7768 5.5542 85.3442 5.41954 86.0008 5.41954V7.45154H85.4988C84.7275 7.45154 84.1435 7.64654 83.7468 8.03654C83.3495 8.42654 83.1508 9.10387 83.1508 10.0685V15.0625H81.1808V5.57354H83.1508V6.95154C83.4375 6.46954 83.8202 6.09354 84.2988 5.82354Z" fill="white"/>
</g>
</g>
<defs>
<clipPath id="clip0_291_2190">
<rect width="86" height="24" fill="white"/>
</clipPath>
</defs>
</svg>
