<svg width="112" height="24" viewBox="0 0 112 24" fill="none" xmlns="http://www.w3.org/2000/svg">
<g clip-path="url(#clip0_291_2208)">
<rect width="112" height="24" fill="white"/>
<mask id="mask0_291_2208" style="mask-type:luminance" maskUnits="userSpaceOnUse" x="0" y="0" width="112" height="24">
<path d="M0 0H112V24H0V0Z" fill="white"/>
</mask>
<g mask="url(#mask0_291_2208)">
<path fill-rule="evenodd" clip-rule="evenodd" d="M3.49 14.255C3.77134 12.1937 4.79037 10.3042 6.35825 8.93676C7.92614 7.5693 9.93657 6.81655 12.017 6.818C13.3868 6.81691 14.737 7.14303 15.9553 7.76921C17.1735 8.39539 18.2246 9.30352 19.021 10.418C19.395 9.89545 19.8263 9.41646 20.307 8.99C19.6864 7.29038 18.5582 5.82274 17.0752 4.7861C15.5923 3.74946 13.8264 3.19398 12.017 3.195C7.147 3.195 3.2 7.137 3.2 12C3.2 12.779 3.301 13.534 3.492 14.254M12.019 10.011C11.3098 10.0105 10.6074 10.1497 9.95197 10.4206C9.29655 10.6916 8.70092 11.089 8.1991 11.5901C7.69728 12.0913 7.2991 12.6864 7.02729 13.3415C6.75549 13.9966 6.61539 14.6988 6.615 15.408C6.61552 16.1171 6.75572 16.8192 7.02758 17.4742C7.29944 18.1291 7.69764 18.7241 8.19945 19.2252C8.70126 19.7263 9.29685 20.1236 9.9522 20.3945C10.6076 20.6654 11.3099 20.8045 12.019 20.804H12.135H12.086C13.4983 20.7876 14.8479 20.2185 15.8456 19.2188C16.8432 18.2191 17.4095 16.8683 17.423 15.456V15.359C17.4093 13.9352 16.8338 12.5744 15.8217 11.5728C14.8096 10.5712 13.4429 10.0099 12.019 10.011ZM12.019 23.999C5.38 24 0 18.628 0 12C0 5.372 5.38 0 12.017 0C16.568 0 20.529 2.527 22.568 6.251C21.6709 7.0355 20.9073 7.96055 20.307 8.99C21.8824 7.58975 23.9172 6.81683 26.025 6.818C30.777 6.818 34.628 10.664 34.628 15.408C34.628 20.154 30.776 24 26.025 24L12.019 23.999ZM23.709 14.569C23.8217 14.5651 23.934 14.5839 24.0392 14.6244C24.1445 14.6648 24.2405 14.726 24.3216 14.8044C24.4027 14.8827 24.4672 14.9766 24.5112 15.0804C24.5553 15.1842 24.578 15.2958 24.578 15.4085C24.578 15.5212 24.5553 15.6328 24.5112 15.7366C24.4672 15.8404 24.4027 15.9343 24.3216 16.0126C24.2405 16.091 24.1445 16.1522 24.0392 16.1926C23.934 16.2331 23.8217 16.2519 23.709 16.248C23.4914 16.2405 23.2852 16.1488 23.1339 15.9921C22.9825 15.8355 22.898 15.6263 22.898 15.4085C22.898 15.1907 22.9825 14.9815 23.1339 14.8249C23.2852 14.6682 23.4914 14.5765 23.709 14.569ZM26.027 14.569C26.1397 14.565 26.252 14.5838 26.3573 14.6242C26.4625 14.6646 26.5586 14.7257 26.6397 14.804C26.7209 14.8823 26.7854 14.9761 26.8295 15.0799C26.8736 15.1837 26.8964 15.2952 26.8965 15.408C26.8965 15.5207 26.8739 15.6323 26.8299 15.7362C26.7859 15.84 26.7215 15.9339 26.6405 16.0123C26.5594 16.0906 26.4634 16.1519 26.3582 16.1924C26.253 16.2329 26.1407 16.2518 26.028 16.248C25.8104 16.2406 25.6041 16.149 25.4527 15.9925C25.3013 15.836 25.2166 15.6267 25.2165 15.409C25.2163 15.1912 25.3008 14.9819 25.452 14.8252C25.6032 14.6685 25.8094 14.5766 26.027 14.569ZM28.345 14.569C28.4577 14.565 28.57 14.5838 28.6753 14.6242C28.7805 14.6646 28.8766 14.7257 28.9578 14.804C29.0389 14.8823 29.1034 14.9761 29.1475 15.0799C29.1916 15.1837 29.2144 15.2952 29.2145 15.408C29.2145 15.5207 29.1919 15.6323 29.1479 15.7362C29.1039 15.84 29.0395 15.9339 28.9585 16.0123C28.8774 16.0906 28.7814 16.1519 28.6762 16.1924C28.571 16.2329 28.4587 16.2518 28.346 16.248C28.1284 16.2405 27.9222 16.1488 27.7709 15.9921C27.6195 15.8355 27.535 15.6263 27.535 15.4085C27.535 15.1907 27.6195 14.9815 27.7709 14.8249C27.9222 14.6682 28.1284 14.5765 28.346 14.569M26.028 10.011C25.3185 10.0098 24.6158 10.1485 23.96 10.4193C23.3043 10.69 22.7083 11.0873 22.2063 11.5886C21.7042 12.0899 21.306 12.6853 21.0343 13.3407C20.7626 13.996 20.6229 14.6985 20.623 15.408C20.6263 17.3727 19.9521 19.2785 18.714 20.804C17.907 21.803 16.8865 22.6086 15.7275 23.1617C14.5684 23.7147 13.3002 24.0012 12.016 24C15.0433 24.0047 17.9601 22.8632 20.18 20.805C22.122 20.805 24.084 20.833 26.023 20.805C26.7321 20.8055 27.4344 20.6664 28.0898 20.3955C28.7452 20.1246 29.3407 19.7273 29.8425 19.2262C30.3444 18.7251 30.7426 18.1301 31.0144 17.4752C31.2863 16.8202 31.4265 16.1181 31.427 15.409C31.4262 13.977 30.8567 12.604 29.8436 11.5919C28.8306 10.5797 27.457 10.0115 26.025 10.012" fill="white"/>
<path d="M109.996 12.7186C109.996 12.2519 109.901 11.8486 109.709 11.5086C109.537 11.1899 109.281 10.9243 108.968 10.7405C108.656 10.5567 108.3 10.4616 107.937 10.4656C107.583 10.4656 107.249 10.5569 106.935 10.7396C106.615 10.9276 106.353 11.2011 106.179 11.5296C105.988 11.8749 105.892 12.2806 105.891 12.7466C105.891 13.2132 105.987 13.6189 106.179 13.9636C106.371 14.3102 106.623 14.5739 106.935 14.7546C107.249 14.9366 107.583 15.0276 107.937 15.0276C108.295 15.0296 108.646 14.9327 108.952 14.7476C109.271 14.5538 109.532 14.2787 109.709 13.9506C109.901 13.6039 109.996 13.1932 109.996 12.7186ZM105.891 9.98958C106.145 9.63558 106.493 9.33958 106.935 9.10158C107.379 8.86358 107.886 8.74458 108.456 8.74458C109.12 8.74458 109.72 8.90791 110.256 9.23458C110.794 9.56124 111.219 10.0249 111.531 10.6256C111.845 11.2276 112.001 11.9249 112 12.7176C112 13.5109 111.844 14.2126 111.531 14.8226C111.218 15.4332 110.793 15.9066 110.256 16.2426C109.717 16.579 109.092 16.7539 108.456 16.7466C107.886 16.7466 107.384 16.6299 106.949 16.3966C106.537 16.1834 106.176 15.8832 105.891 15.5166V20.3146H103.93V8.87058H105.891V9.98958ZM100.497 12.7176C100.497 12.2509 100.402 11.8476 100.21 11.5076C100.038 11.1891 99.7814 10.9237 99.4692 10.7401C99.1569 10.5564 98.8004 10.4615 98.4382 10.4656C98.0822 10.4656 97.7479 10.5569 97.4352 10.7396C97.1147 10.9276 96.8529 11.2011 96.6792 11.5296C96.4872 11.8749 96.3912 12.2806 96.3912 12.7466C96.3912 13.2126 96.4872 13.6182 96.6792 13.9636C96.8699 14.3102 97.1219 14.5739 97.4352 14.7546C97.7386 14.934 98.0847 15.0283 98.4372 15.0276C98.8025 15.0276 99.1412 14.9342 99.4532 14.7476C99.7665 14.5609 100.019 14.2952 100.21 13.9506C100.402 13.6039 100.497 13.1932 100.497 12.7186M96.3922 9.99058C96.6442 9.63658 96.9919 9.34058 97.4352 9.10258C97.8785 8.86458 98.3852 8.74558 98.9552 8.74558C99.6192 8.74558 100.22 8.90891 100.756 9.23558C101.293 9.56224 101.718 10.0259 102.031 10.6266C102.345 11.2272 102.501 11.9246 102.5 12.7186C102.5 13.5119 102.344 14.2136 102.031 14.8236C101.718 15.4342 101.293 15.9076 100.756 16.2436C100.217 16.58 99.592 16.7549 98.9562 16.7476C98.3862 16.7476 97.8842 16.6309 97.4502 16.3976C97.0379 16.1844 96.6769 15.8842 96.3922 15.5176V20.3156H94.4302V8.87058H96.3922V9.99058ZM89.8622 13.1946L88.4482 9.10958L87.0332 13.1946H89.8622ZM90.3952 14.7616H86.5002L85.8562 16.6226H83.7962L87.3142 6.84258H89.5972L93.1142 16.6226H91.0412L90.3952 14.7616ZM81.0642 12.7746C81.0642 12.1959 80.9475 11.6926 80.7142 11.2646C80.4985 10.8528 80.1705 10.5106 79.7682 10.2776C79.3695 10.0495 78.9175 9.93119 78.4582 9.93458C77.9815 9.93458 77.5472 10.0466 77.1552 10.2706C76.7625 10.4946 76.4495 10.8212 76.2162 11.2506C75.9829 11.6799 75.8662 12.1832 75.8662 12.7606C75.8662 13.3486 75.9829 13.8596 76.2162 14.2936C76.4502 14.7269 76.7632 15.0579 77.1552 15.2866C77.5472 15.5152 77.9815 15.6292 78.4582 15.6286C78.9342 15.6286 79.3709 15.5146 79.7682 15.2866C80.1655 15.0572 80.4805 14.7262 80.7132 14.2936C80.9465 13.8589 81.0642 13.3526 81.0642 12.7746ZM74.5632 12.7606C74.5632 11.9772 74.7215 11.2896 75.0382 10.6976C75.3372 10.1246 75.7911 9.64715 76.3482 9.31958C76.9155 8.98863 77.5625 8.81918 78.2192 8.82958C78.8165 8.83025 79.3722 8.96791 79.8862 9.24258C80.3995 9.51791 80.7919 9.87958 81.0632 10.3276V6.26858H82.3532V16.6216H81.0632V15.1806C80.8119 15.6372 80.4385 16.0126 79.9432 16.3066C79.4479 16.6006 78.8689 16.7476 78.2062 16.7476C77.5255 16.7476 76.9065 16.5799 76.3492 16.2446C75.7889 15.9054 75.3351 15.4159 75.0392 14.8316C74.7212 14.2249 74.5622 13.5342 74.5622 12.7596M72.8802 8.95458V16.6216H71.6052V15.4886C71.3583 15.8824 71.0064 16.1996 70.5892 16.4046C70.1434 16.6266 69.6512 16.7396 69.1532 16.7346C68.594 16.7434 68.041 16.6157 67.5422 16.3626C67.0635 16.113 66.6706 15.7257 66.4142 15.2506C66.1382 14.7559 66.0002 14.1542 66.0002 13.4456V8.95558H67.2612V13.2786C67.2612 14.0339 67.4525 14.6142 67.8352 15.0196C68.2185 15.4256 68.7419 15.6282 69.4052 15.6276C70.0872 15.6276 70.6242 15.4176 71.0162 14.9976C71.4082 14.5776 71.6042 13.9666 71.6042 13.1646V8.95458H72.8802ZM60.4522 15.6276C60.9022 15.6298 61.3457 15.5194 61.7422 15.3066C62.1435 15.0926 62.4679 14.7709 62.7152 14.3416C62.9625 13.9122 63.0862 13.3896 63.0862 12.7736C63.0862 12.1576 62.9649 11.6352 62.7222 11.2066C62.4795 10.7779 62.1619 10.4586 61.7692 10.2486C61.3772 10.0387 60.9389 9.93036 60.4942 9.93358C60.0275 9.93358 59.6002 10.0386 59.2122 10.2486C58.8136 10.4686 58.4892 10.802 58.2802 11.2066C58.0469 11.6359 57.9302 12.1582 57.9302 12.7736C57.9302 13.3982 58.0445 13.9256 58.2732 14.3556C58.5025 14.7842 58.8085 15.1036 59.1912 15.3136C59.5739 15.5236 59.9935 15.6282 60.4522 15.6276ZM60.4532 16.7476C59.7345 16.7476 59.0832 16.5842 58.4992 16.2576C57.9182 15.9336 57.4416 15.4507 57.1252 14.8656C56.7932 14.2642 56.6275 13.5669 56.6282 12.7736C56.6282 11.9902 56.7985 11.2979 57.1392 10.6966C57.4633 10.1119 57.9467 9.63127 58.5332 9.31058C59.1212 8.98925 59.7799 8.82858 60.5092 8.82858C61.2372 8.82858 61.8955 8.98925 62.4842 9.31058C63.0697 9.6294 63.5532 10.1071 63.8792 10.6886C64.2192 11.2859 64.3895 11.9809 64.3902 12.7736C64.3902 13.5669 64.2152 14.2639 63.8652 14.8646C63.5294 15.4517 63.0371 15.934 62.4432 16.2576C61.8321 16.5867 61.1473 16.7553 60.4532 16.7476ZM54.9332 6.26758V16.6216H53.6582V6.26858L54.9332 6.26758ZM42.3662 11.7376C42.3662 10.7876 42.5809 9.93224 43.0102 9.17158C43.4241 8.42884 44.0316 7.81228 44.7682 7.38758C45.5203 6.95615 46.3742 6.7338 47.2412 6.74358C48.3065 6.74358 49.2362 7.00024 50.0302 7.51358C50.8242 8.02691 51.4032 8.75424 51.7672 9.69558H50.2402C49.9702 9.10824 49.5802 8.65591 49.0702 8.33858C48.5615 8.02191 47.9522 7.86358 47.2422 7.86358C46.5595 7.86358 45.9479 8.02191 45.4072 8.33858C44.8628 8.65858 44.4206 9.12679 44.1322 9.68858C43.8235 10.2712 43.6692 10.9546 43.6692 11.7386C43.6692 12.5119 43.8235 13.1902 44.1322 13.7736C44.4206 14.3354 44.8628 14.8036 45.4072 15.1236C45.9485 15.4409 46.5602 15.5996 47.2422 15.5996C47.9522 15.5996 48.5615 15.4432 49.0702 15.1306C49.5802 14.8186 49.9702 14.3686 50.2402 13.7806H51.7682C51.4042 14.7139 50.8252 15.4346 50.0312 15.9426C49.2372 16.4506 48.3075 16.7046 47.2422 16.7046C46.3369 16.7046 45.5125 16.4926 44.7692 16.0686C44.0326 15.6501 43.4246 15.038 43.0112 14.2986C42.5812 13.5439 42.3662 12.6896 42.3662 11.7376Z" fill="white"/>
</g>
</g>
<defs>
<clipPath id="clip0_291_2208">
<rect width="112" height="24" fill="white"/>
</clipPath>
</defs>
</svg>
