<svg xmlns="http://www.w3.org/2000/svg" width="240" height="40" fill="none" viewBox="0 0 240 40">
  <path fill="#DCF247" d="M20 1.25C9.652 1.25 1.25 9.65 1.25 20c0 10.347 8.402 18.75 18.75 18.75S38.75 30.346 38.75 20c0-2.877-.65-5.602-1.81-8.04l-1.862 1.862c-.351.354-.83.553-1.33.553h-.517A14.3 14.3 0 0 1 34.376 20c0 7.932-6.444 14.376-14.376 14.376S5.624 27.931 5.624 20 12.068 5.623 20 5.623c1.996 0 3.897.408 5.625 1.145V6.25c0-.498.2-.977.553-1.329l1.86-1.861A18.66 18.66 0 0 0 20 1.25"/>
  <text x="50" y="27" fill="#FFFFFF" font-family="Figtree, sans-serif" font-size="14" font-weight="600">El Sistema Ganador</text>
</svg>
